<?xml version="1.0" encoding="UTF-8"?>
<svg version="1.1" xmlns="http://www.w3.org/2000/svg" width="612" height="408">
<path d="M0 0 C15.66949822 1.64027999 31.33496423 3.31769012 47 5 C47 5.99 47 6.98 47 8 C40.28965425 10.63064817 33.57774518 13.25726224 26.86425781 15.87988281 C24.45792947 16.82091882 22.05291915 17.76519798 19.6484375 18.7109375 C18.50632812 19.15695313 17.36421875 19.60296875 16.1875 20.0625 C15.21167969 20.44535156 14.23585938 20.82820313 13.23046875 21.22265625 C11 22 11 22 9 22 C8.875 16.25 8.875 16.25 10 14 C8.99582031 14.19335938 7.99164063 14.38671875 6.95703125 14.5859375 C-3.20884824 16.52788916 -13.38289559 18.45512753 -23.6875 19.5 C-27.5140722 19.8991748 -31.21288516 20.61877289 -34.9765625 21.40625 C-38.74207626 22.14573074 -42.52524133 22.75968817 -46.3125 23.375 C-53.85645337 24.6089758 -61.36415418 25.99194058 -68.86889648 27.44433594 C-73.56637676 28.35160243 -78.26652629 29.23428518 -82.9765625 30.07421875 C-83.96237305 30.25025635 -84.94818359 30.42629395 -85.96386719 30.60766602 C-87.85200501 30.94320476 -89.74065152 31.27589831 -91.62988281 31.60522461 C-95.44414126 32.2843052 -99.17175216 32.99578902 -102.8828125 34.1171875 C-106 35 -106 35 -110 35 C-109.390625 33.12890625 -109.390625 33.12890625 -108 31 C-105.234375 29.83984375 -105.234375 29.83984375 -101.75 28.9375 C-100.50476563 28.61136719 -99.25953125 28.28523438 -97.9765625 27.94921875 C-92.01271608 26.50034967 -86.01740432 25.20713886 -80 24 C-100.56680573 26.71967315 -121.46124234 32.27871317 -140.66699219 40.05615234 C-142.91703253 40.96643447 -145.17819708 41.84031191 -147.4453125 42.70703125 C-167.3106431 50.43042551 -186.02575229 61.20199406 -203.1796875 73.8203125 C-205 75 -205 75 -207 75 C-207 75.66 -207 76.32 -207 77 C-208.98 77.495 -208.98 77.495 -211 78 C-211 78.66 -211 79.32 -211 80 C-212.69903023 81.51740976 -214.46072723 82.965128 -216.25 84.375 C-220.24746847 87.46860935 -220.24746847 87.46860935 -223.69921875 91.11865234 C-226.87745917 93.71749791 -229.68929126 93.50604412 -233.609375 93.390625 C-234.33618469 93.38496521 -235.06299438 93.37930542 -235.81182861 93.37347412 C-238.12523245 93.35114553 -240.4370672 93.30096048 -242.75 93.25 C-244.32159216 93.22993023 -245.89320868 93.21168029 -247.46484375 93.1953125 C-251.31049717 93.15129293 -255.15498289 93.08229375 -259 93 C-258.67 91.68 -258.34 90.36 -258 89 C-257.34 89 -256.68 89 -256 89 C-255.67 88.01 -255.34 87.02 -255 86 C-253.36328125 84.3515625 -253.36328125 84.3515625 -251.3125 82.625 C-250.59449219 82.01785156 -249.87648437 81.41070312 -249.13671875 80.78515625 C-248.43160156 80.19605469 -247.72648438 79.60695313 -247 79 C-246.40832031 78.48308594 -245.81664062 77.96617187 -245.20703125 77.43359375 C-241.24519231 74 -241.24519231 74 -239 74 C-239 73.34 -239 72.68 -239 72 C-237.1640625 70.51953125 -237.1640625 70.51953125 -234.625 68.8125 C-233.70847656 68.19117188 -232.79195312 67.56984375 -231.84765625 66.9296875 C-230.90792969 66.29289062 -229.96820313 65.65609375 -229 65 C-227.35356521 63.81333405 -225.70771451 62.62585719 -224.0625 61.4375 C-219.87601367 58.50237344 -215.5642071 56.01206351 -211.03125 53.65234375 C-208.38904744 52.21207096 -205.84216031 50.68881658 -203.27734375 49.1171875 C-180.73015019 35.5340619 -154.55865355 27.65729027 -129 22 C-127.957229 21.76571289 -126.91445801 21.53142578 -125.84008789 21.29003906 C-117.28756192 19.40640775 -108.71105212 17.87026303 -100.0625 16.5 C-99.39457428 16.39361206 -98.72664856 16.28722412 -98.03848267 16.1776123 C-65.72157227 11.03928253 -65.72157227 11.03928253 -49.84008789 10.34277344 C-43.74910484 10.07408353 -37.69566367 9.55970301 -31.625 9 C-23.18591373 8.22542178 -14.76223092 7.66354134 -6.29345703 7.34179688 C-2.7262662 7.19567997 0.56000735 6.95116108 4 6 C4 5.34 4 4.68 4 4 C2.02 3.505 2.02 3.505 0 3 C0 2.01 0 1.02 0 0 Z M-50 17 C-46 18 -46 18 -46 18 Z M-56 18 C-56 18.33 -56 18.66 -56 19 C-54.02 19 -52.04 19 -50 19 C-50 18.67 -50 18.34 -50 18 C-51.98 18 -53.96 18 -56 18 Z M-69.875 20.5 C-71.02742187 20.7784375 -72.17984375 21.056875 -73.3671875 21.34375 C-74.67042969 21.66859375 -74.67042969 21.66859375 -76 22 C-76 22.33 -76 22.66 -76 23 C-69.4491015 22.54240047 -63.3246158 21.7899856 -57 20 C-57 19.67 -57 19.34 -57 19 C-61.54868922 18.83409036 -65.45989071 19.41874875 -69.875 20.5 Z " fill="#1C95D7" transform="translate(392,134)"/>
<path d="M0 0 C1.12067871 0.00424484 2.24135742 0.00848969 3.39599609 0.01286316 C6.95174874 0.02956564 10.50692059 0.06720307 14.0625 0.10546875 C16.48306469 0.12052644 18.90363833 0.13421295 21.32421875 0.14648438 C27.23717508 0.17944155 33.14979603 0.22955673 39.0625 0.29296875 C38.36170108 4.13469778 37.30653589 7.13136128 35.5 10.60546875 C35.04496094 11.48847656 34.58992188 12.37148437 34.12109375 13.28125 C33.77175781 13.94511719 33.42242187 14.60898438 33.0625 15.29296875 C18.72123091 15.94817132 4.41966167 16.4579936 -9.9375 16.29296875 C-9.6075 17.28296875 -9.2775 18.27296875 -8.9375 19.29296875 C-7.58386353 19.3069873 -7.58386353 19.3069873 -6.20288086 19.32128906 C-2.82712422 19.36552715 0.54740286 19.42723739 3.92260742 19.50048828 C5.3782196 19.52856461 6.83398046 19.54984507 8.28979492 19.56396484 C23.39651779 19.71922407 23.39651779 19.71922407 29.0625 24.29296875 C32.27654 29.32364006 31.43878627 35.30891385 30.375 40.91796875 C28.39128225 46.01895726 25.7872975 49.22873199 21.125 52.10546875 C14.46481905 54.68798789 7.7964127 54.42552754 0.7578125 54.390625 C-0.32130402 54.38921005 -1.40042053 54.3877951 -2.51223755 54.38633728 C-5.94568702 54.38075719 -9.37907036 54.3682083 -12.8125 54.35546875 C-15.14583239 54.35045118 -17.4791658 54.34588872 -19.8125 54.34179688 C-25.52085575 54.33079428 -31.22917315 54.31407596 -36.9375 54.29296875 C-35.9375 49.29296875 -35.9375 49.29296875 -29.9375 38.29296875 C-16.0775 37.96296875 -2.2175 37.63296875 12.0625 37.29296875 C12.3925 36.30296875 12.7225 35.31296875 13.0625 34.29296875 C12.22589844 34.3086792 11.38929688 34.32438965 10.52734375 34.34057617 C7.3888584 34.3920588 4.25059012 34.42948983 1.11181641 34.45776367 C-0.90086248 34.48006283 -2.91334584 34.51820528 -4.92578125 34.55664062 C-20.27650409 34.67234959 -20.27650409 34.67234959 -26.375 29.04296875 C-28.83687016 24.71007727 -29.47143109 21.47894543 -28.2734375 16.57421875 C-26.46257455 11.0974625 -24.72814265 6.77707249 -19.9375 3.29296875 C-13.18153854 0.12442668 -7.39452889 -0.10657987 0 0 Z " fill="#E8E9EA" transform="translate(432.9375,172.70703125)"/>
<path d="M0 0 C1.12067871 0.00424484 2.24135742 0.00848969 3.39599609 0.01286316 C6.95174874 0.02956564 10.50692059 0.06720307 14.0625 0.10546875 C16.48306469 0.12052644 18.90363833 0.13421295 21.32421875 0.14648438 C27.23717508 0.17944155 33.14979603 0.22955673 39.0625 0.29296875 C38.36170108 4.13469778 37.30653589 7.13136128 35.5 10.60546875 C35.04496094 11.48847656 34.58992188 12.37148437 34.12109375 13.28125 C33.77175781 13.94511719 33.42242187 14.60898438 33.0625 15.29296875 C5.11735809 16.48685278 5.11735809 16.48685278 -7.9375 16.29296875 C-8.2675 17.28296875 -8.5975 18.27296875 -8.9375 19.29296875 C-8.0403125 19.29707764 -7.143125 19.30118652 -6.21875 19.30541992 C-2.85582687 19.33256128 0.50532221 19.38180998 3.86767578 19.44555664 C5.31645653 19.46860176 6.7654016 19.48310044 8.21435547 19.48852539 C24.2176002 19.56021463 24.2176002 19.56021463 30.0625 25.29296875 C32.17476606 29.51750087 31.5682838 34.70719563 31.0625 39.29296875 C29.15331999 44.54703214 26.6845752 48.14919619 22.0625 51.29296875 C14.96090713 54.37000562 8.00194212 54.70181201 0.3671875 54.5859375 C-0.70626923 54.58169266 -1.77972595 54.57744781 -2.88571167 54.57307434 C-6.27824128 54.55642535 -9.67015319 54.51879899 -13.0625 54.48046875 C-15.37759552 54.46540411 -17.69270046 54.45171884 -20.0078125 54.43945312 C-25.6512486 54.40656717 -31.29433015 54.35650736 -36.9375 54.29296875 C-35.9375 49.29296875 -35.9375 49.29296875 -29.9375 38.29296875 C-16.0775 37.96296875 -2.2175 37.63296875 12.0625 37.29296875 C12.5575 36.30296875 12.5575 36.30296875 13.0625 35.29296875 C11.80759766 35.27109497 11.80759766 35.27109497 10.52734375 35.2487793 C7.38846557 35.18729656 4.25020584 35.1130671 1.11181641 35.03051758 C-0.90050311 34.9813723 -2.91315732 34.94660587 -4.92578125 34.91210938 C-20.48255551 34.48214828 -20.48255551 34.48214828 -26.375 29.04296875 C-28.83687016 24.71007727 -29.47143109 21.47894543 -28.2734375 16.57421875 C-26.46257455 11.0974625 -24.72814265 6.77707249 -19.9375 3.29296875 C-13.18153854 0.12442668 -7.39452889 -0.10657987 0 0 Z " fill="#E8E9EA" transform="translate(369.9375,172.70703125)"/>
<path d="M0 0 C18.81 0 37.62 0 57 0 C56 6 56 6 53 15 C40.46 15 27.92 15 15 15 C14.67 16.65 14.34 18.3 14 20 C25.55 20 37.1 20 49 20 C47 29 47 29 46 33 C34.45 33 22.9 33 11 33 C10.67 34.65 10.34 36.3 10 38 C21.88 38 33.76 38 46 38 C47 42 47 42 44 54 C25.52 54 7.04 54 -12 54 C-13.09502009 50.71493972 -12.93661643 49.99721197 -11.99609375 46.80859375 C-11.75270264 45.95821533 -11.50931152 45.10783691 -11.25854492 44.23168945 C-10.9876001 43.30960693 -10.71665527 42.38752441 -10.4375 41.4375 C-7.60821114 31.489247 -5.18975585 21.48331643 -2.91772461 11.39428711 C-2.68061768 10.34249268 -2.44351074 9.29069824 -2.19921875 8.20703125 C-1.99127686 7.2735083 -1.78333496 6.33998535 -1.5690918 5.37817383 C-1 3 -1 3 0 0 Z " fill="#E7E7E9" transform="translate(288,173)"/>
<path d="M0 0 C0 1.32 0 2.64 0 4 C-0.66 4.33 -1.32 4.66 -2 5 C-1.01 5.99 -1.01 5.99 0 7 C0 7.99 0 8.98 0 10 C2.475 9.505 2.475 9.505 5 9 C4.34 10.32 3.68 11.64 3 13 C1.02 13 -0.96 13 -3 13 C-3 13.66 -3 14.32 -3 15 C-6.84065107 18.57963595 -11.13469103 20.74690669 -15.8125 23 C-16.82280273 23.495 -16.82280273 23.495 -17.85351562 24 C-20.57117088 25.33152104 -23.29086171 26.65855987 -26.01757812 27.97143555 C-30.82133302 30.31765974 -35.35968281 32.95342732 -39.875 35.8125 C-40.56609863 36.2461084 -41.25719727 36.6797168 -41.96923828 37.12646484 C-46.82643575 40.19577857 -51.55015539 43.41486007 -56.1796875 46.8203125 C-58 48 -58 48 -60 48 C-60 48.66 -60 49.32 -60 50 C-61.98 50.495 -61.98 50.495 -64 51 C-64 51.66 -64 52.32 -64 53 C-65.69903023 54.51740976 -67.46072723 55.965128 -69.25 57.375 C-73.24746847 60.46860935 -73.24746847 60.46860935 -76.69921875 64.11865234 C-79.87745917 66.71749791 -82.68929126 66.50604412 -86.609375 66.390625 C-87.33618469 66.38496521 -88.06299438 66.37930542 -88.81182861 66.37347412 C-91.12523245 66.35114553 -93.4370672 66.30096048 -95.75 66.25 C-97.32159216 66.22993023 -98.89320868 66.21168029 -100.46484375 66.1953125 C-104.31049717 66.15129293 -108.15498289 66.08229375 -112 66 C-111.67 64.68 -111.34 63.36 -111 62 C-110.34 62 -109.68 62 -109 62 C-108.67 61.01 -108.34 60.02 -108 59 C-106.36328125 57.3515625 -106.36328125 57.3515625 -104.3125 55.625 C-103.59449219 55.01785156 -102.87648437 54.41070312 -102.13671875 53.78515625 C-101.43160156 53.19605469 -100.72648438 52.60695312 -100 52 C-99.40832031 51.48308594 -98.81664062 50.96617187 -98.20703125 50.43359375 C-94.24519231 47 -94.24519231 47 -92 47 C-92 46.34 -92 45.68 -92 45 C-90.1640625 43.51953125 -90.1640625 43.51953125 -87.625 41.8125 C-86.70847656 41.19117188 -85.79195312 40.56984375 -84.84765625 39.9296875 C-83.90792969 39.29289062 -82.96820313 38.65609375 -82 38 C-80.35356521 36.81333405 -78.70771451 35.62585719 -77.0625 34.4375 C-72.87601367 31.50237344 -68.5642071 29.01206351 -64.03125 26.65234375 C-61.38904744 25.21207096 -58.84216031 23.68881658 -56.27734375 22.1171875 C-51.33914443 19.14226375 -46.30774134 16.57411431 -41.0625 14.1875 C-40.14243164 13.76807129 -39.22236328 13.34864258 -38.27441406 12.91650391 C-9.11186159 0 -9.11186159 0 0 0 Z " fill="#1A94D7" transform="translate(245,161)"/>
<path d="M0 0 C3.66683012 2.29176883 5.17874078 3.94108009 7 7.875 C8.58207763 16.09527965 5.40347243 24.89683874 1.1875 31.875 C-4.5784335 37.14671063 -9.19322281 38.46812769 -16.77734375 38.265625 C-17.58869278 38.25996521 -18.40004181 38.25430542 -19.23597717 38.24847412 C-21.8037755 38.2262492 -24.37013015 38.17608235 -26.9375 38.125 C-28.68813076 38.1049169 -30.43878359 38.08666931 -32.18945312 38.0703125 C-36.46018378 38.02643044 -40.72984793 37.95750275 -45 37.875 C-45.13277344 38.70644531 -45.26554687 39.53789062 -45.40234375 40.39453125 C-45.57894531 41.48121094 -45.75554687 42.56789062 -45.9375 43.6875 C-46.11152344 44.76644531 -46.28554687 45.84539062 -46.46484375 46.95703125 C-47 49.875 -47 49.875 -48 52.875 C-50.84657828 53.40873343 -52.2608402 53.62390886 -55 52.875 C-59.2794194 49.47263475 -62.45831557 45.96650376 -63.84375 40.6171875 C-64.03164416 36.1171224 -63.25866307 32.39069046 -62.125 28.0625 C-61.93808594 27.30001953 -61.75117188 26.53753906 -61.55859375 25.75195312 C-60.1860119 20.24702381 -60.1860119 20.24702381 -59 17.875 C-57.0925293 16.76513672 -57.0925293 16.76513672 -54.57421875 15.5546875 C-53.64198486 15.10520752 -52.70975098 14.65572754 -51.74926758 14.19262695 C-50.73888428 13.71656006 -49.72850098 13.24049316 -48.6875 12.75 C-47.65455811 12.26297607 -46.62161621 11.77595215 -45.55737305 11.27416992 C-12.35628881 -4.22237961 -12.35628881 -4.22237961 0 0 Z M-40 15.875 C-40.66 18.515 -41.32 21.155 -42 23.875 C-37.91672643 23.9330772 -33.83355917 23.96862249 -29.75 24 C-28.59113281 24.01675781 -27.43226563 24.03351563 -26.23828125 24.05078125 C-25.12324219 24.05722656 -24.00820312 24.06367188 -22.859375 24.0703125 C-21.83295898 24.08078613 -20.80654297 24.09125977 -19.74902344 24.10205078 C-16.9220251 23.8685598 -15.29597706 23.53394682 -13 21.875 C-12.18129815 18.31293339 -12.18129815 18.31293339 -12 14.875 C-15.35312796 14.64698189 -18.70737072 14.44618032 -22.0625 14.25 C-23.00544922 14.18554688 -23.94839844 14.12109375 -24.91992188 14.0546875 C-30.4533965 13.74620111 -34.77799117 13.97740456 -40 15.875 Z " fill="#EAEBED" transform="translate(275,174.125)"/>
<path d="M0 0 C9.76412112 -0.20275429 19.17330812 0.36043619 28.875 1.5 C30.78345703 1.71462891 30.78345703 1.71462891 32.73046875 1.93359375 C35.82116747 2.28216879 38.91088451 2.63770823 42 3 C42 3.99 42 4.98 42 6 C19.93072289 15.5753012 19.93072289 15.5753012 9 15 C9 15.66 9 16.32 9 17 C8.01 17 7.02 17 6 17 C6 15.02 6 13.04 6 11 C-2.87438484 11.42811661 -2.87438484 11.42811661 -11.5625 13.125 C-14.94797313 13.9867568 -15.85082257 13.96600535 -19 13 C-19.66 12.835 -20.32 12.67 -21 12.5 C-23 12 -25 11.5 -27 11 C-27 12.65 -27 14.3 -27 16 C-31.62 16.33 -36.24 16.66 -41 17 C-40.505 15.515 -40.505 15.515 -40 14 C-38.35 13.67 -36.7 13.34 -35 13 C-35.66 12.34 -36.32 11.68 -37 11 C-36.40832031 10.95101562 -35.81664062 10.90203125 -35.20703125 10.8515625 C-34.41683594 10.77679688 -33.62664062 10.70203125 -32.8125 10.625 C-31.64654297 10.52058594 -31.64654297 10.52058594 -30.45703125 10.4140625 C-27.97266653 10.09892744 -27.97266653 10.09892744 -25.73242188 9 C-22.63387442 7.86600694 -20.11768871 7.68328144 -16.82421875 7.5859375 C-15.08881836 7.52792969 -15.08881836 7.52792969 -13.31835938 7.46875 C-12.12017578 7.4378125 -10.92199219 7.406875 -9.6875 7.375 C-8.46998047 7.33632812 -7.25246094 7.29765625 -5.99804688 7.2578125 C-2.99884772 7.16371998 0.00034823 7.07807791 3 7 C3 6.01 3 5.02 3 4 C2.01 3.67 1.02 3.34 0 3 C0 2.01 0 1.02 0 0 Z " fill="#1A95DA" transform="translate(397,136)"/>
<path d="M0 0 C2.97 0 5.94 0 9 0 C9 0.66 9 1.32 9 2 C10.45880109 1.85892253 11.91703551 1.71197585 13.375 1.5625 C14.59316406 1.44068359 14.59316406 1.44068359 15.8359375 1.31640625 C18.04272805 1.10909886 18.04272805 1.10909886 20 0 C22.2072923 -0.07092842 24.41667452 -0.08415025 26.625 -0.0625 C27.81351562 -0.05347656 29.00203125 -0.04445312 30.2265625 -0.03515625 C31.14179688 -0.02355469 32.05703125 -0.01195312 33 0 C34.125 3.75 34.125 3.75 33 6 C33.99 6 34.98 6 36 6 C36 5.34 36 4.68 36 4 C37.41377782 3.63447197 38.83120576 3.28304505 40.25 2.9375 C41.03890625 2.74027344 41.8278125 2.54304687 42.640625 2.33984375 C45.12825747 1.98152583 46.61334893 2.32847917 49 3 C46.37646482 4.00399524 43.75132205 5.00334445 41.125 6 C40.37863281 6.28617188 39.63226563 6.57234375 38.86328125 6.8671875 C33.2265625 9 33.2265625 9 31 9 C30.875 3.25 30.875 3.25 32 1 C30.99582031 1.19335938 29.99164063 1.38671875 28.95703125 1.5859375 C18.79115176 3.52788916 8.61710441 5.45512753 -1.6875 6.5 C-5.5140722 6.8991748 -9.21288516 7.61877289 -12.9765625 8.40625 C-16.74207626 9.14573074 -20.52524133 9.75968817 -24.3125 10.375 C-31.85645337 11.6089758 -39.36415418 12.99194058 -46.86889648 14.44433594 C-51.56637676 15.35160243 -56.26652629 16.23428518 -60.9765625 17.07421875 C-62.45527832 17.33827515 -62.45527832 17.33827515 -63.96386719 17.60766602 C-65.85200501 17.94320476 -67.74065152 18.27589831 -69.62988281 18.60522461 C-73.44414126 19.2843052 -77.17175216 19.99578902 -80.8828125 21.1171875 C-84 22 -84 22 -88 22 C-87.390625 20.12890625 -87.390625 20.12890625 -86 18 C-83.234375 16.83984375 -83.234375 16.83984375 -79.75 15.9375 C-78.50476563 15.61136719 -77.25953125 15.28523437 -75.9765625 14.94921875 C-70.01271608 13.50034967 -64.01740432 12.20713886 -58 11 C-58 10.34 -58 9.68 -58 9 C-56.68 9 -55.36 9 -54 9 C-54 8.34 -54 7.68 -54 7 C-50.7 6.67 -47.4 6.34 -44 6 C-44 5.34 -44 4.68 -44 4 C-43.3294458 3.94465088 -42.6588916 3.88930176 -41.96801758 3.83227539 C-38.91592263 3.57865989 -35.86421686 3.32062362 -32.8125 3.0625 C-31.75740234 2.97548828 -30.70230469 2.88847656 -29.61523438 2.79882812 C-28.59365234 2.71181641 -27.57207031 2.62480469 -26.51953125 2.53515625 C-25.58214111 2.456604 -24.64475098 2.37805176 -23.67895508 2.29711914 C-21.07393974 2.00820055 -18.56704812 1.51941943 -16 1 C-14.06348981 0.93466565 -12.12497139 0.91415697 -10.1875 0.9375 C-9.21167969 0.94652344 -8.23585938 0.95554688 -7.23046875 0.96484375 C-6.12638672 0.98224609 -6.12638672 0.98224609 -5 1 C-8.22791555 3.1519437 -9.28400809 3.20086443 -13 3 C-13 3.66 -13 4.32 -13 5 C-8.71 5 -4.42 5 0 5 C0 3.35 0 1.7 0 0 Z M-28 4 C-24 5 -24 5 -24 5 Z M-34 5 C-34 5.33 -34 5.66 -34 6 C-32.02 6 -30.04 6 -28 6 C-28 5.67 -28 5.34 -28 5 C-29.98 5 -31.96 5 -34 5 Z M-47.875 7.5 C-49.02742188 7.7784375 -50.17984375 8.056875 -51.3671875 8.34375 C-52.67042969 8.66859375 -52.67042969 8.66859375 -54 9 C-54 9.33 -54 9.66 -54 10 C-47.4491015 9.54240047 -41.3246158 8.7899856 -35 7 C-35 6.67 -35 6.34 -35 6 C-39.54868922 5.83409036 -43.45989071 6.41874875 -47.875 7.5 Z " fill="#218AC5" transform="translate(370,147)"/>
<path d="M0 0 C2.97 0.33 5.94 0.66 9 1 C7.68 1.33 6.36 1.66 5 2 C5.495 3.485 5.495 3.485 6 5 C6.99 5.495 6.99 5.495 8 6 C8 6.99 8 7.98 8 9 C1.62246059 10.04000306 -4.6961802 10.31282383 -11.1484375 10.51757812 C-15.61321641 10.70598042 -18.85991242 11.25139158 -23 13 C-26.18825997 13.6579962 -29.40207171 14.10912628 -32.625 14.5625 C-33.5221875 14.69180908 -34.419375 14.82111816 -35.34375 14.9543457 C-45.62659695 16.41015094 -55.60595354 17.16325727 -66 17 C-66 17.66 -66 18.32 -66 19 C-69.21451269 20.60725635 -72.43612536 20.05748185 -76 20 C-76 20.66 -76 21.32 -76 22 C-78.97710638 22.82074855 -81.95633909 23.63172084 -84.9375 24.4375 C-85.76830078 24.66759766 -86.59910156 24.89769531 -87.45507812 25.13476562 C-92.98097705 26.61837273 -98.29887465 27.49949757 -104 28 C-100.99837659 24.70002245 -98.38159175 23.94934488 -94 23 C-91.66784156 22.92596322 -89.33139212 22.90484114 -87 23 C-86.34 21.68 -85.68 20.36 -85 19 C-84.34 19 -83.68 19 -83 19 C-83 18.34 -83 17.68 -83 17 C-83.75925781 17.09539062 -84.51851563 17.19078125 -85.30078125 17.2890625 C-86.29464844 17.39992187 -87.28851563 17.51078125 -88.3125 17.625 C-89.29863281 17.74101562 -90.28476562 17.85703125 -91.30078125 17.9765625 C-94 18 -94 18 -97 16 C-96.40687012 15.91959473 -95.81374023 15.83918945 -95.20263672 15.75634766 C-93.43160181 15.51607371 -91.66060939 15.27548643 -89.88964844 15.03466797 C-87.86436723 14.75944754 -85.83897463 14.4850457 -83.81347656 14.21142578 C-78.44968191 13.48373935 -73.09837378 12.70949804 -67.75 11.875 C-61.93450335 11.03536616 -56.1619803 10.66851936 -50.29931641 10.39404297 C-44.05689016 10.09243233 -37.84792498 9.57294543 -31.625 9 C-23.18589678 8.22554324 -14.7622395 7.66354166 -6.29345703 7.34179688 C-2.7262662 7.19567997 0.56000735 6.95116108 4 6 C4 5.34 4 4.68 4 4 C2.68 3.67 1.36 3.34 0 3 C0 2.01 0 1.02 0 0 Z " fill="#1F91D0" transform="translate(392,134)"/>
<path d="M0 0 C1.32 0 2.64 0 4 0 C5.81302571 1.98954141 7.32988172 3.8810518 8.875 6.0625 C9.75351564 7.26035786 10.63371543 8.45698243 11.515625 9.65234375 C11.93908203 10.23097168 12.36253906 10.80959961 12.79882812 11.40576172 C14.30690079 13.4073297 15.94180921 15.26948253 17.625 17.125 C20 20 20 20 20 23 C-0.68051474 24.73877799 -0.68051474 24.73877799 -5.93798828 21.98486328 C-9.05441988 19.24674477 -10.86111658 15.93932623 -12 12 C-11.9296875 9.84375 -11.9296875 9.84375 -11 8 C-9.00390625 6.296875 -9.00390625 6.296875 -6.5625 4.75 C-5.35787109 3.96882812 -5.35787109 3.96882812 -4.12890625 3.171875 C-2 2 -2 2 0 2 C0 1.34 0 0.68 0 0 Z " fill="#E1E1E4" transform="translate(196,204)"/>
<path d="M0 0 C22.69112567 -1.73438755 22.69112567 -1.73438755 27.375 2.15625 C32 8.07352941 32 8.07352941 32 12 C29.91796875 13.65625 29.91796875 13.65625 27.1875 15.5 C26.29417969 16.1084375 25.40085938 16.716875 24.48046875 17.34375 C19.00487572 20.99989401 19.00487572 20.99989401 16.6640625 21.05078125 C12.6692217 19.47510357 10.86221663 16.58692382 8.375 13.1875 C7.65957031 12.24293945 7.65957031 12.24293945 6.9296875 11.27929688 C6.01193096 10.06454412 5.10109492 8.84452276 4.19824219 7.61865234 C3.21152345 6.28573766 2.1920323 4.97714727 1.1640625 3.67578125 C0 2 0 2 0 0 Z " fill="#DBDCE0" transform="translate(151,173)"/>
<path d="M0 0 C0 2 0 2 -1.5625 4.0625 C-4.72546744 6.57665361 -7.00397705 6.54143999 -11 7 C-15.01959618 8.16246161 -18.94653071 9.60817832 -22.8671875 11.06640625 C-27.19814571 12.3570534 -31.38633282 12.44458576 -35.87890625 12.65625 C-38.93893671 12.99327463 -41.21939033 13.71584507 -44 15 C-44.33 14.01 -44.66 13.02 -45 12 C-43.33333333 10.33333333 -41.66666667 8.66666667 -40 7 C-40 6.67 -40 6.34 -40 6 C-34.06 5.505 -34.06 5.505 -28 5 C-28.33 4.01 -28.66 3.02 -29 2 C-19.36137832 -0.52816306 -9.88563297 -0.18269137 0 0 Z " fill="#1B96D9" transform="translate(309,151)"/>
<path d="M0 0 C2.97 0 5.94 0 9 0 C9 0.66 9 1.32 9 2 C10.45880109 1.85892253 11.91703551 1.71197585 13.375 1.5625 C14.59316406 1.44068359 14.59316406 1.44068359 15.8359375 1.31640625 C18.04272805 1.10909886 18.04272805 1.10909886 20 0 C22.2072923 -0.07092842 24.41667452 -0.08415025 26.625 -0.0625 C27.81351562 -0.05347656 29.00203125 -0.04445312 30.2265625 -0.03515625 C31.14179688 -0.02355469 32.05703125 -0.01195312 33 0 C34.125 3.75 34.125 3.75 33 6 C33.99 6 34.98 6 36 6 C36 5.34 36 4.68 36 4 C37.41377782 3.63447197 38.83120576 3.28304505 40.25 2.9375 C41.03890625 2.74027344 41.8278125 2.54304687 42.640625 2.33984375 C45.12825747 1.98152583 46.61334893 2.32847917 49 3 C46.37646482 4.00399524 43.75132205 5.00334445 41.125 6 C40.37863281 6.28617188 39.63226563 6.57234375 38.86328125 6.8671875 C33.2265625 9 33.2265625 9 31 9 C30.875 3.25 30.875 3.25 32 1 C30.99582031 1.19335938 29.99164063 1.38671875 28.95703125 1.5859375 C18.0802714 3.66368609 7.21512295 5.59826103 -3.80859375 6.71484375 C-7.12725533 7.14668385 -10.37638895 7.86693674 -13.640625 8.59765625 C-16.13594322 9.02318237 -18.47352521 9.06719348 -21 9 C-21 8.34 -21 7.68 -21 7 C-23.31 7 -25.62 7 -28 7 C-28 6.34 -28 5.68 -28 5 C-28.57363281 5.33 -29.14726562 5.66 -29.73828125 6 C-32.18714159 7.08274309 -33.54580231 7.15397874 -36.1875 7 C-40.34781016 6.89015683 -43.94249354 7.5095065 -47.95703125 8.5625 C-50 9 -50 9 -54 9 C-54 8.34 -54 7.68 -54 7 C-50.7 6.67 -47.4 6.34 -44 6 C-44 5.34 -44 4.68 -44 4 C-43.3294458 3.94465088 -42.6588916 3.88930176 -41.96801758 3.83227539 C-38.91592263 3.57865989 -35.86421686 3.32062362 -32.8125 3.0625 C-31.75740234 2.97548828 -30.70230469 2.88847656 -29.61523438 2.79882812 C-28.59365234 2.71181641 -27.57207031 2.62480469 -26.51953125 2.53515625 C-25.58214111 2.456604 -24.64475098 2.37805176 -23.67895508 2.29711914 C-21.07393974 2.00820055 -18.56704812 1.51941943 -16 1 C-14.06348981 0.93466565 -12.12497139 0.91415697 -10.1875 0.9375 C-9.21167969 0.94652344 -8.23585938 0.95554688 -7.23046875 0.96484375 C-6.12638672 0.98224609 -6.12638672 0.98224609 -5 1 C-8.22791555 3.1519437 -9.28400809 3.20086443 -13 3 C-13 3.66 -13 4.32 -13 5 C-8.71 5 -4.42 5 0 5 C0 3.35 0 1.7 0 0 Z M-28 4 C-24 5 -24 5 -24 5 Z " fill="#1C75A6" transform="translate(370,147)"/>
<path d="M0 0 C0.495 1.485 0.495 1.485 1 3 C-1.08785857 5.08785857 -4.95482827 5.08496755 -7.8125 5.625 C-8.53759766 5.77195313 -9.26269531 5.91890625 -10.00976562 6.0703125 C-13.70517622 6.77355624 -16.41178072 7.07409441 -20 6 C-20.66 5.835 -21.32 5.67 -22 5.5 C-24 5 -26 4.5 -28 4 C-28 5.65 -28 7.3 -28 9 C-32.62 9.33 -37.24 9.66 -42 10 C-41.67 9.01 -41.34 8.02 -41 7 C-39.35 6.67 -37.7 6.34 -36 6 C-36.66 5.34 -37.32 4.68 -38 4 C-37.40832031 3.95101562 -36.81664062 3.90203125 -36.20703125 3.8515625 C-35.41683594 3.77679688 -34.62664062 3.70203125 -33.8125 3.625 C-32.64654297 3.52058594 -32.64654297 3.52058594 -31.45703125 3.4140625 C-28.9800422 3.10428107 -28.9800422 3.10428107 -26.79296875 2 C-22.73945004 0.54867023 -18.776678 0.53218265 -14.5 0.375 C-13.65824219 0.33632812 -12.81648438 0.29765625 -11.94921875 0.2578125 C-7.96417158 0.08209388 -3.98974205 -0.04905421 0 0 Z " fill="#1497DD" transform="translate(398,143)"/>
<path d="M0 0 C8.29885674 -0.26153386 16.38694003 0.55826503 24.625 1.5 C25.91535156 1.64308594 27.20570313 1.78617188 28.53515625 1.93359375 C31.69068053 2.28420756 34.84555987 2.63978452 38 3 C38 3.99 38 4.98 38 6 C35.23174812 7.17314026 32.46071514 8.33870215 29.6875 9.5 C28.90181641 9.83386719 28.11613281 10.16773438 27.30664062 10.51171875 C26.54931641 10.82753906 25.79199219 11.14335937 25.01171875 11.46875 C24.31522217 11.76201172 23.61872559 12.05527344 22.90112305 12.35742188 C21 13 21 13 18 13 C18 12.34 18 11.68 18 11 C19.32 11 20.64 11 22 11 C22.33 9.35 22.66 7.7 23 6 C22.34 5.67 21.68 5.34 21 5 C21 4.34 21 3.68 21 3 C15.06 3 9.12 3 3 3 C3 2.34 3 1.68 3 1 C2.01 0.67 1.02 0.34 0 0 Z " fill="#217CB1" transform="translate(401,136)"/>
<path d="M0 0 C2.31 0.33 4.62 0.66 7 1 C6.34 1.99 5.68 2.98 5 4 C5.495 4.99 5.495 4.99 6 6 C-1.41617452 7.79423577 -8.79825678 9.34398754 -16.3359375 10.52734375 C-18.62661564 10.93375439 -20.77769739 11.44885261 -23 12.125 C-26 13 -26 13 -30 13 C-29.390625 11.12890625 -29.390625 11.12890625 -28 9 C-25.234375 7.83984375 -25.234375 7.83984375 -21.75 6.9375 C-20.50476563 6.61136719 -19.25953125 6.28523437 -17.9765625 5.94921875 C-12.01271608 4.50034967 -6.01740432 3.20713886 0 2 C0 1.34 0 0.68 0 0 Z " fill="#236C9A" transform="translate(312,156)"/>
<path d="M0 0 C2.97 0.33 5.94 0.66 9 1 C7.68 1.33 6.36 1.66 5 2 C5.495 3.485 5.495 3.485 6 5 C6.66 5.33 7.32 5.66 8 6 C8 6.99 8 7.98 8 9 C2.68942541 9.8886833 -2.39885945 10.13355881 -7.77734375 10.09765625 C-8.58869278 10.0962413 -9.40004181 10.09482635 -10.23597717 10.09336853 C-12.80319047 10.08781357 -15.37031348 10.07526967 -17.9375 10.0625 C-19.68814977 10.05747917 -21.43880093 10.05291729 -23.18945312 10.04882812 C-27.4596697 10.03785893 -31.72981959 10.02062582 -36 10 C-36 9.67 -36 9.34 -36 9 C-34.93040039 8.94465088 -33.86080078 8.88930176 -32.75878906 8.83227539 C-28.78526729 8.62561676 -24.81203416 8.41380201 -20.83886719 8.20043945 C-19.12019146 8.10886535 -17.40144093 8.01868414 -15.68261719 7.92993164 C-13.21007571 7.80201692 -10.73784778 7.66907276 -8.265625 7.53515625 C-7.49881409 7.49656998 -6.73200317 7.4579837 -5.94195557 7.41822815 C-2.50387276 7.2275039 0.68099662 6.90526882 4 6 C4 5.34 4 4.68 4 4 C2.68 3.67 1.36 3.34 0 3 C0 2.01 0 1.02 0 0 Z " fill="#1F75A9" transform="translate(392,134)"/>
<path d="M0 0 C2.12563103 0.11376617 4.2505261 0.24135631 6.375 0.375 C8.15003906 0.47941406 8.15003906 0.47941406 9.9609375 0.5859375 C13 1 13 1 15 3 C9.26562104 4.60301957 3.93883902 5.37797723 -2 5.625 C-2.77472656 5.66367188 -3.54945313 5.70234375 -4.34765625 5.7421875 C-6.23143415 5.83521357 -8.11568256 5.91863175 -10 6 C-10 5.34 -10 4.68 -10 4 C-6.3558226 1.5705484 -4.28758728 1.83820425 0 2 C0 1.34 0 0.68 0 0 Z " fill="#1B9ADC" transform="translate(331,146)"/>
<path d="M0 0 C-0.33 0.66 -0.66 1.32 -1 2 C-3.31 1.67 -5.62 1.34 -8 1 C-8 2.65 -8 4.3 -8 6 C-12.62 6.33 -17.24 6.66 -22 7 C-21.67 6.01 -21.34 5.02 -21 4 C-19.35 3.67 -17.7 3.34 -16 3 C-16.66 2.34 -17.32 1.68 -18 1 C-11.93303301 0.22959149 -6.11485027 -0.09706112 0 0 Z " fill="#1B9AD8" transform="translate(378,146)"/>
<path d="M0 0 C-0.33 1.32 -0.66 2.64 -1 4 C-5.96073422 5.32286246 -10.91111512 5.08893197 -16 5 C-16 4.01 -16 3.02 -16 2 C-10.60539047 -0.27141454 -5.73842251 -0.20413361 0 0 Z " fill="#2B8DC4" transform="translate(332,156)"/>
<path d="M0 0 C-1.54107422 0.36351562 -1.54107422 0.36351562 -3.11328125 0.734375 C-10.56988607 2.52796394 -17.75077594 4.43332118 -24.86328125 7.36328125 C-27 8 -27 8 -30 7 C-28.9375 5.5625 -28.9375 5.5625 -27 4 C-24.66666667 3.66666667 -22.33333333 3.33333333 -20 3 C-19.56558594 2.51015625 -19.13117188 2.0203125 -18.68359375 1.515625 C-16.16332729 -0.75319956 -13.89307365 -0.55341677 -10.5625 -0.75 C-9.42941406 -0.82734375 -8.29632813 -0.9046875 -7.12890625 -0.984375 C-4.47565486 -0.99762469 -2.50003608 -0.81082251 0 0 Z " fill="#2278A8" transform="translate(287,163)"/>
<path d="M0 0 C0 0.66 0 1.32 0 2 C-3.54322154 3.77161077 -7.59693134 3.76176264 -11.5 4.1875 C-12.82064453 4.34895508 -12.82064453 4.34895508 -14.16796875 4.51367188 C-15.00972656 4.60583984 -15.85148437 4.69800781 -16.71875 4.79296875 C-17.49154297 4.8808667 -18.26433594 4.96876465 -19.06054688 5.05932617 C-21 5 -21 5 -23 3 C-19.91979223 2.29795962 -16.83548264 1.61594792 -13.75 0.9375 C-12.87730469 0.73833984 -12.00460937 0.53917969 -11.10546875 0.33398438 C-10.26113281 0.15029297 -9.41679687 -0.03339844 -8.546875 -0.22265625 C-7.77182617 -0.39547119 -6.99677734 -0.56828613 -6.19824219 -0.74633789 C-3.84824709 -1.01751125 -2.23802732 -0.71554459 0 0 Z " fill="#1D7AAE" transform="translate(281,154)"/>
<path d="M0 0 C0 0.33 0 0.66 0 1 C-0.68964844 1.04898438 -1.37929688 1.09796875 -2.08984375 1.1484375 C-6.65941203 1.51199712 -10.96326932 1.91409543 -15.375 3.1875 C-21.30441893 4.66715463 -27.11577578 3.18230162 -33 2 C-33 1.67 -33 1.34 -33 1 C-21.98110461 0.2931751 -11.04312186 -0.14659011 0 0 Z " fill="#2784B7" transform="translate(364,144)"/>
<path d="M0 0 C-0.33 0.99 -0.66 1.98 -1 3 C-3.36328125 3.94921875 -3.36328125 3.94921875 -6.3125 4.6875 C-7.27800781 4.93886719 -8.24351562 5.19023437 -9.23828125 5.44921875 C-12 6 -12 6 -16 6 C-15.33984375 4.11328125 -15.33984375 4.11328125 -14 2 C-11.50390625 0.91796875 -11.50390625 0.91796875 -8.5625 0.1875 C-7.59441406 -0.06644531 -6.62632812 -0.32039062 -5.62890625 -0.58203125 C-3 -1 -3 -1 0 0 Z " fill="#357CA8" transform="translate(298,163)"/>
<path d="M0 0 C-0.66 1.32 -1.32 2.64 -2 4 C-2.66 4 -3.32 4 -4 4 C-4.2475 4.61875 -4.495 5.2375 -4.75 5.875 C-6.25822744 8.43898664 -7.17636058 9.11257047 -10 10 C-12.75 9.625 -12.75 9.625 -15 9 C-11.6214602 5.03388806 -5.46055995 0 0 0 Z " fill="#2387BF" transform="translate(184,187)"/>
<path d="M0 0 C0.66 0.33 1.32 0.66 2 1 C-1.64251537 4.82183921 -5.92541591 8.57195943 -11.30078125 9.3203125 C-13.5 9.3125 -13.5 9.3125 -17 9 C-14.25791047 6.25791047 -10.96960337 4.93056736 -7.5 3.3125 C-6.46552734 2.81266602 -6.46552734 2.81266602 -5.41015625 2.30273438 C-3.63555022 1.4707797 -1.81961711 0.72826419 0 0 Z " fill="#2383B7" transform="translate(209,173)"/>
<path d="M0 0 C1.98 0 3.96 0 6 0 C1.276236 5.00163247 -3.47306167 8.69637471 -10 11 C-10 11.66 -10 12.32 -10 13 C-11.32 13.33 -12.64 13.66 -14 14 C-12.5019913 10.18688695 -10.37351976 8.27516449 -7 6 C-4.1875 5.25 -4.1875 5.25 -2 5 C-2 4.34 -2 3.68 -2 3 C-1.01 2.67 -0.02 2.34 1 2 C0.67 1.34 0.34 0.68 0 0 Z " fill="#2471A1" transform="translate(195,198)"/>
<path d="M0 0 C-2.35968744 2.09749995 -3.54616994 2.96905704 -6.75 3.1875 C-7.86375 3.0946875 -7.86375 3.0946875 -9 3 C-9.33 3.99 -9.66 4.98 -10 6 C-14.06368679 6.77403558 -17.86425173 7.0984702 -22 7 C-18.51673576 4.67782384 -14.88975079 3.28326876 -11 1.8125 C-10.27554688 1.52697266 -9.55109375 1.24144531 -8.8046875 0.94726562 C-3.35592226 -1.11864075 -3.35592226 -1.11864075 0 0 Z " fill="#1C82B6" transform="translate(233,166)"/>
<path d="M0 0 C1.98 0 3.96 0 6 0 C7.125 3.75 7.125 3.75 6 6 C6.99 6 7.98 6 9 6 C9 5.34 9 4.68 9 4 C10.41377782 3.63447197 11.83120576 3.28304505 13.25 2.9375 C14.03890625 2.74027344 14.8278125 2.54304687 15.640625 2.33984375 C18.12825747 1.98152583 19.61334893 2.32847917 22 3 C19.37646482 4.00399524 16.75132205 5.00334445 14.125 6 C13.37863281 6.28617188 12.63226563 6.57234375 11.86328125 6.8671875 C6.2265625 9 6.2265625 9 4 9 C3.875 3.25 3.875 3.25 5 1 C3.68 1.33 2.36 1.66 1 2 C0.67 1.34 0.34 0.68 0 0 Z " fill="#1B6392" transform="translate(397,147)"/>
<path d="M0 0 C3.63 0 7.26 0 11 0 C7.77208445 2.1519437 6.71599191 2.20086443 3 2 C3 2.66 3 3.32 3 4 C6.63 4 10.26 4 14 4 C13.67 4.66 13.34 5.32 13 6 C8.07942161 7.32015518 3.94686159 6.76761645 -1 6 C-0.67 4.02 -0.34 2.04 0 0 Z " fill="#2385B7" transform="translate(354,148)"/>
<path d="M0 0 C4.62 0 9.24 0 14 0 C13.67 0.66 13.34 1.32 13 2 C10.38248433 2.67138538 7.84136577 3.21616601 5.1875 3.6875 C4.09985352 3.90116211 4.09985352 3.90116211 2.99023438 4.11914062 C-0.68374052 4.79477553 -3.43203331 5.07608489 -7 4 C-6.67 3.01 -6.34 2.02 -6 1 C-3.03 1.495 -3.03 1.495 0 2 C0 1.34 0 0.68 0 0 Z " fill="#209BDF" transform="translate(385,145)"/>
<path d="M0 0 C-2.58090767 1.31746333 -5.16450458 2.62909617 -7.75 3.9375 C-8.47960937 4.31068359 -9.20921875 4.68386719 -9.9609375 5.06835938 C-10.66992188 5.42607422 -11.37890625 5.78378906 -12.109375 6.15234375 C-13.08342285 6.6472229 -13.08342285 6.6472229 -14.07714844 7.15209961 C-16.03293079 8.01452116 -17.91540694 8.54374179 -20 9 C-19 6 -19 6 -17.1875 4.8125 C-15 4 -15 4 -11 4 C-10.67 3.01 -10.34 2.02 -10 1 C-6.19730268 -0.6900877 -3.94727832 -1.19873962 0 0 Z " fill="#256EA0" transform="translate(239,179)"/>
<path d="M0 0 C0.66 0.33 1.32 0.66 2 1 C1.34 1.66 0.68 2.32 0 3 C0 3.99 0 4.98 0 6 C-1.875 8.1875 -1.875 8.1875 -4 10 C-4.66 10 -5.32 10 -6 10 C-6.99 11.485 -6.99 11.485 -8 13 C-8.66 12.67 -9.32 12.34 -10 12 C-3.84965831 3.55353075 -3.84965831 3.55353075 0 0 Z " fill="#1E84BA" transform="translate(146,212)"/>
<path d="M0 0 C-3.39335841 2.26223894 -6.02477632 2.83862411 -10 3.6875 C-11.85625 4.09548828 -11.85625 4.09548828 -13.75 4.51171875 C-17 5 -17 5 -20 4 C-13.60355623 -0.26429585 -7.46017494 -0.27018742 0 0 Z " fill="#20759F" transform="translate(308,157)"/>
<path d="M0 0 C0 0.66 0 1.32 0 2 C-6.69613196 2.797837 -13.25766581 3.12910853 -20 3 C-20 2.67 -20 2.34 -20 2 C-13.23514355 0.3879491 -6.95041086 -0.26618595 0 0 Z " fill="#2077AA" transform="translate(331,146)"/>
<path d="M0 0 C2.31 0.33 4.62 0.66 7 1 C6.01 2.485 6.01 2.485 5 4 C5.33 4.66 5.66 5.32 6 6 C3.36 6.66 0.72 7.32 -2 8 C-2 7.34 -2 6.68 -2 6 C-1.01 6 -0.02 6 1 6 C1 5.34 1 4.68 1 4 C-0.32 3.67 -1.64 3.34 -3 3 C-2.01 2.34 -1.02 1.68 0 1 C0 0.67 0 0.34 0 0 Z " fill="#1C5F93" transform="translate(312,156)"/>
<path d="M0 0 C1.4540625 0.0309375 1.4540625 0.0309375 2.9375 0.0625 C0.31722564 2.68277436 -2.64173297 3.54448873 -6.0625 4.75 C-6.70445312 4.98783203 -7.34640625 5.22566406 -8.0078125 5.47070312 C-9.67160558 6.06416907 -11.36613299 6.56980517 -13.0625 7.0625 C-13.7225 6.7325 -14.3825 6.4025 -15.0625 6.0625 C-14.0725 5.7325 -13.0825 5.4025 -12.0625 5.0625 C-12.0625 4.4025 -12.0625 3.7425 -12.0625 3.0625 C-11.49660156 2.92972656 -10.93070313 2.79695312 -10.34765625 2.66015625 C-9.24744141 2.39525391 -9.24744141 2.39525391 -8.125 2.125 C-7.39410156 1.95097656 -6.66320312 1.77695313 -5.91015625 1.59765625 C-0.42403846 0.00865385 -0.42403846 0.00865385 0 0 Z " fill="#266F9A" transform="translate(254.0625,170.9375)"/>
<path d="M0 0 C-0.33 0.66 -0.66 1.32 -1 2 C-3.31 1.67 -5.62 1.34 -8 1 C-8 1.66 -8 2.32 -8 3 C-10.78863007 4.39431504 -12.92078868 4.25660094 -16 4 C-16.66 3.01 -17.32 2.02 -18 1 C-11.93303301 0.22959149 -6.11485027 -0.09706112 0 0 Z " fill="#299DD5" transform="translate(378,146)"/>
<path d="M0 0 C-0.33 0.66 -0.66 1.32 -1 2 C-3.765625 2.6328125 -3.765625 2.6328125 -7.25 3.125 C-8.38953125 3.29257813 -9.5290625 3.46015625 -10.703125 3.6328125 C-13.51095622 3.94553304 -16.18013184 4.07420706 -19 4 C-13.0428783 0.52501234 -6.7393695 -0.28080706 0 0 Z " fill="#2278A5" transform="translate(397,147)"/>
<path d="M0 0 C2.97 0.33 5.94 0.66 9 1 C7.68 1.33 6.36 1.66 5 2 C5.33 3.98 5.66 5.96 6 8 C4.02 8 2.04 8 0 8 C1.32 7.34 2.64 6.68 4 6 C4 5.34 4 4.68 4 4 C2.68 3.67 1.36 3.34 0 3 C0 2.01 0 1.02 0 0 Z " fill="#184C77" transform="translate(392,134)"/>
<path d="M0 0 C0 1.32 0 2.64 0 4 C-4.08443115 5.53166168 -7.79455657 4.63081652 -12 4 C-8.30376141 2.00971768 -4.25699221 0 0 0 Z " fill="#1B7AAF" transform="translate(245,161)"/>
<path d="M0 0 C0 0.66 0 1.32 0 2 C1.65 2.33 3.3 2.66 5 3 C1.86501708 4.85776765 -0.37471432 5.20140476 -4 5 C-3.67 4.01 -3.34 3.02 -3 2 C-4.65 2 -6.3 2 -8 2 C-4.77208445 -0.1519437 -3.71599191 -0.20086443 0 0 Z " fill="#1F74A7" transform="translate(335,154)"/>
<path d="M0 0 C0.33 1.32 0.66 2.64 1 4 C-4.2734375 7.22265625 -4.2734375 7.22265625 -6 8 C-6.66 7.67 -7.32 7.34 -8 7 C-6.625 5.5 -6.625 5.5 -5 4 C-4.34 4 -3.68 4 -3 4 C-3 3.34 -3 2.68 -3 2 C-2.01 1.34 -1.02 0.68 0 0 Z " fill="#2275A3" transform="translate(156,204)"/>
<path d="M0 0 C-3.07692746 2.6815279 -5.19734663 3.42087807 -9.25 3.6875 C-10.14203125 3.75324219 -11.0340625 3.81898438 -11.953125 3.88671875 C-12.62859375 3.92410156 -13.3040625 3.96148437 -14 4 C-11.8244694 1.8244694 -10.44026108 1.28120447 -7.5625 0.3125 C-6.78003906 0.04050781 -5.99757812 -0.23148438 -5.19140625 -0.51171875 C-3 -1 -3 -1 0 0 Z " fill="#206FA1" transform="translate(233,166)"/>
<path d="M0 0 C0 0.99 0 1.98 0 3 C-2.64 3.33 -5.28 3.66 -8 4 C-7.25 2.0625 -7.25 2.0625 -6 0 C-3.40292416 -1.05506206 -2.5386068 -1.2693034 0 0 Z " fill="#23576E" transform="translate(290,165)"/>
<path d="M0 0 C2.31 0 4.62 0 7 0 C7 0.66 7 1.32 7 2 C3.36576791 4.32590854 0.22911669 4.16265833 -4 4 C-3.34 3.525625 -2.68 3.05125 -2 2.5625 C-1.34 2.046875 -0.68 1.53125 0 1 C0 0.67 0 0.34 0 0 Z " fill="#298BC7" transform="translate(306,160)"/>
<path d="M0 0 C0.66 0.33 1.32 0.66 2 1 C0.58480285 3.0343459 -0.54982123 3.90410393 -2.98046875 4.421875 C-4.98176954 4.66273952 -6.9909944 4.83532741 -9 5 C-6.32239719 2.32239719 -3.52050129 1.32018799 0 0 Z " fill="#1C6F9A" transform="translate(209,173)"/>
<path d="M0 0 C1.32 0.33 2.64 0.66 4 1 C1.36 2.98 -1.28 4.96 -4 7 C-4 5.68 -4 4.36 -4 3 C-3.01 3 -2.02 3 -1 3 C-0.67 2.01 -0.34 1.02 0 0 Z " fill="#1E648B" transform="translate(177,213)"/>
<path d="M0 0 C-0.33 1.32 -0.66 2.64 -1 4 C-2.98 4.33 -4.96 4.66 -7 5 C-2.25 0 -2.25 0 0 0 Z " fill="#23719D" transform="translate(165,199)"/>
<path d="M0 0 C0 0.99 0 1.98 0 3 C-2.3125 4.75 -2.3125 4.75 -5 6 C-5.99 5.67 -6.98 5.34 -8 5 C-4.04 2.525 -4.04 2.525 0 0 Z " fill="#297195" transform="translate(177,190)"/>
<path d="M0 0 C0.99 0.66 1.98 1.32 3 2 C1.68 2.33 0.36 2.66 -1 3 C-1 3.66 -1 4.32 -1 5 C-2.32 5.33 -3.64 5.66 -5 6 C-3.63016497 2.83884224 -3.0109362 2.0072908 0 0 Z " fill="#206790" transform="translate(186,206)"/>
<path d="M0 0 C1.4540625 0.0309375 1.4540625 0.0309375 2.9375 0.0625 C0.22567788 2.66584924 -0.95383813 3.05706691 -4.8125 3.25 C-5.885 3.188125 -6.9575 3.12625 -8.0625 3.0625 C-7.423125 2.753125 -6.78375 2.44375 -6.125 2.125 C-2.0825 0.0425 -2.0825 0.0425 0 0 Z " fill="#2699D8" transform="translate(350.0625,146.9375)"/>
<path d="M0 0 C0 0.99 0 1.98 0 3 C-1.8125 4.75 -1.8125 4.75 -4 6 C-4.99 5.67 -5.98 5.34 -7 5 C-4.69 3.35 -2.38 1.7 0 0 Z " fill="#B3B7BE" transform="translate(194,206)"/>
</svg>
